<svg xmlns="http://www.w3.org/2000/svg" xmlns:svg="http://www.w3.org/2000/svg" xmlns:xlink="http://www.w3.org/1999/xlink" id="svg8718" width="1052.362" height="744.094" version="1.0"><defs id="defs3"><marker id="Arrow1Lend" orient="auto" overflow="visible" refX="0" refY="0"><path id="path73830" fill-rule="evenodd" stroke="#000" stroke-width="1pt" marker-start="none" d="M 0.0,0.0 L 5.0,-5.0 L -12.5,0.0 L 5.0,5.0 L 0.0,0.0 z" transform="scale(0.8) rotate(180) translate(12.5,0)"/></marker><marker id="Arrow1Lstart" orient="auto" overflow="visible" refX="0" refY="0"><path id="path73827" fill-rule="evenodd" stroke="#000" stroke-width="1pt" marker-start="none" d="M 0.0,0.0 L 5.0,-5.0 L -12.5,0.0 L 5.0,5.0 L 0.0,0.0 z" transform="scale(0.8) translate(12.5,0)"/></marker><marker id="Arrow2Send" orient="auto" overflow="visible" refX="0" refY="0"><path id="path6081" fill-rule="evenodd" stroke-linejoin="round" stroke-width=".625" d="M 8.7185878,4.0337352 L -2.2072895,0.016013256 L 8.7185884,-4.0017078 C 6.97309,-1.6296469 6.9831476,1.6157441 8.7185878,4.0337352 z" font-size="12" transform="matrix(-0.3,0,0,-0.3,0.69,0)"/></marker><marker id="Arrow1Send" orient="auto" overflow="visible" refX="0" refY="0"><path id="path6099" fill-rule="evenodd" stroke="#000" stroke-width="1pt" marker-start="none" d="M 0,0 L 5,-5 L -12.5,0 L 5,5 L 0,0 z" transform="matrix(-0.2,0,0,-0.2,-1.2,0)"/></marker><linearGradient id="linearGradient2114" x1="16.887" x2="60.903" y1="6.216" y2="65.818" gradientTransform="matrix(0.968115,0,0,1.032935,181.67675,-156.61231)" gradientUnits="userSpaceOnUse" xlink:href="#linearGradient2116"/><linearGradient id="linearGradient2084" x1="16.887" x2="60.903" y1="6.216" y2="65.818" gradientTransform="matrix(0.968115,0,0,1.032935,1.34375,1)" gradientUnits="userSpaceOnUse" xlink:href="#linearGradient2078"/><linearGradient id="linearGradient2078"><stop id="stop2080" offset="0" stop-color="#cad8f4" stop-opacity="1"/><stop id="stop2082" offset="1" stop-color="#d4ffce" stop-opacity="1"/></linearGradient><linearGradient id="linearGradient2116"><stop id="stop2118" offset="0" stop-color="#28282c" stop-opacity="1"/><stop id="stop2120" offset="1" stop-color="#e5f7f7" stop-opacity="1"/></linearGradient><linearGradient id="linearGradient18446" x1="16.887" x2="60.903" y1="6.216" y2="65.818" gradientTransform="matrix(0.968115,0,0,1.032935,181.67675,-156.61231)" gradientUnits="userSpaceOnUse" xlink:href="#linearGradient2116"/><linearGradient id="linearGradient18448" x1="16.887" x2="60.903" y1="6.216" y2="65.818" gradientTransform="matrix(0.968115,0,0,1.032935,180.0205,-157.61231)" gradientUnits="userSpaceOnUse" xlink:href="#linearGradient2116"/><linearGradient id="linearGradient7996" x1="247.5" x2="459.5" y1="568.375" y2="568.375" gradientUnits="userSpaceOnUse" xlink:href="#linearGradient7982"/><radialGradient id="radialGradient7988" cx="253.883" cy="589.777" r="106" fx="253.883" fy="589.777" gradientTransform="matrix(1.462876,-3.700928e-3,3.340258e-3,1.320306,-119.8692,-187.8848)" gradientUnits="userSpaceOnUse" xlink:href="#linearGradient7982"/><linearGradient id="linearGradient5769" x1="240" x2="449.5" y1="551.119" y2="551.119" gradientUnits="userSpaceOnUse" xlink:href="#linearGradient5763"/><linearGradient id="linearGradient5763"><stop id="stop5765" offset="0" stop-color="#00f" stop-opacity="1"/><stop id="stop5767" offset="1" stop-color="#00f" stop-opacity="0"/></linearGradient><linearGradient id="linearGradient7982"><stop id="stop7984" offset="0" stop-color="#7fffff" stop-opacity="1"/><stop id="stop7986" offset="1" stop-color="#00f" stop-opacity="1"/></linearGradient><linearGradient id="linearGradient7990"><stop id="stop7992" offset="0" stop-color="#00f" stop-opacity="1"/><stop id="stop7994" offset="1" stop-color="#00f" stop-opacity="0"/></linearGradient></defs><metadata id="metadata4"/><g id="layer1"><g id="g13773" transform="translate(134.62314,-38.379661)"><text id="text13796" x="378.188" y="472.362" fill="#000" fill-opacity="1" stroke="none" stroke-linecap="butt" stroke-linejoin="miter" stroke-opacity="1" stroke-width="1" font-family="Bitstream Vera Sans" font-size="40" font-style="normal" font-weight="normal" text-anchor="middle" xml:space="preserve" style="text-align:center"><tspan style="text-align:center" id="tspan13798" x="380.734" y="472.362" font-size="16" text-anchor="middle">credentials </tspan><tspan id="tspan13800" x="378.188" y="492.362" font-size="16" text-anchor="middle" style="text-align:center">management</tspan></text><rect id="rect8728" width="330.265" height="151.568" x="181.127" y="353.624" fill="none" fill-opacity="1" stroke="#000" stroke-dasharray="none" stroke-dashoffset="0" stroke-miterlimit="4" stroke-opacity="1" stroke-width="1.943"/><text id="text9241" x="218.161" y="400.69" fill="#000" fill-opacity="1" stroke="none" stroke-linecap="butt" stroke-linejoin="miter" stroke-opacity="1" stroke-width="1" font-family="Bitstream Vera Sans" font-size="40" font-style="normal" font-weight="normal" xml:space="preserve"><tspan id="tspan9243" x="218.161" y="400.69">Ganga Core</tspan></text><g id="g9976" transform="translate(-186.59605,25)"><path id="path9964" fill="none" fill-opacity="1" stroke="#000" stroke-dasharray="none" stroke-dashoffset="0" stroke-miterlimit="4" stroke-opacity="1" stroke-width="5.082" d="M 234.83747,274.20009 A 22.015945,22.015945 0 1 1 234.83756,274.56758" transform="matrix(0.6239892,0,0,0.6239892,365.05995,106.03498)"/><path id="path9970" fill="none" fill-rule="evenodd" stroke="#000" stroke-dasharray="none" stroke-linecap="butt" stroke-linejoin="miter" stroke-miterlimit="4" stroke-opacity="1" stroke-width="1.973" d="M 525,327.36218 L 525,291.16343"/></g><text id="text9972" x="258.809" y="323.009" fill="#000" fill-opacity="1" stroke="none" stroke-linecap="butt" stroke-linejoin="miter" stroke-opacity="1" stroke-width="1" font-family="Bitstream Vera Sans" font-size="27.819" font-style="normal" font-weight="bold" xml:space="preserve" style="-inkscape-font-specification:Bitstream Vera Sans Bold"><tspan id="tspan9974" x="258.809" y="323.009">GPI</tspan></text><g id="g13787" transform="translate(18.59588,-25.470557)"><path id="path17718" fill="#fff" fill-opacity="1" fill-rule="evenodd" stroke="#000" stroke-linecap="butt" stroke-linejoin="miter" stroke-opacity="1" stroke-width="3.101" d="M 342.62638,477.81205 C 305.40412,477.83274 305.40412,477.83274 305.40412,477.83274 L 324,452.36218 L 342.62638,477.81205 z"/><path id="path17720" fill="#fff" fill-opacity="1" fill-rule="evenodd" stroke="#000" stroke-linecap="butt" stroke-linejoin="miter" stroke-opacity="1" stroke-width="3.101" d="M 409.98061,477.97604 C 372.75834,477.99672 372.75834,477.99672 372.75834,477.99672 L 391.35422,452.52616 L 409.98061,477.97604 z"/><path id="path17722" fill="#fff" fill-opacity="1" fill-rule="evenodd" stroke="#000" stroke-linecap="butt" stroke-linejoin="miter" stroke-opacity="1" stroke-width="3.101" d="M 339.45559,452.95253 C 376.67285,452.36218 376.67285,452.36218 376.67285,452.36218 L 358.49941,478.11413 L 339.45559,452.95253 z"/><text id="text77275" x="451.111" y="455.942" fill="#000" fill-opacity="1" stroke="none" stroke-linecap="butt" stroke-linejoin="miter" stroke-opacity="1" stroke-width="1" font-family="Bitstream Vera Sans" font-size="40" font-style="normal" font-weight="normal" xml:space="preserve"><tspan style="text-align:center;-inkscape-font-specification:Bitstream Vera Sans Bold" id="tspan77277" x="451.111" y="455.942" font-size="11" font-weight="bold" text-anchor="middle">AFS token</tspan><tspan id="tspan77279" x="451.111" y="469.692" font-size="11" font-weight="bold" text-anchor="middle" style="text-align:center;-inkscape-font-specification:Bitstream Vera Sans Bold">GridProxy</tspan><tspan id="tspan77281" x="451.111" y="483.442" font-size="11" font-weight="bold" text-anchor="middle" style="text-align:center;-inkscape-font-specification:Bitstream Vera Sans Bold">VOMS</tspan><tspan id="tspan77283" x="451.111" y="497.192" font-size="11" font-weight="bold" text-anchor="middle" style="text-align:center;-inkscape-font-specification:Bitstream Vera Sans Bold">MyProxy</tspan></text></g><text id="text13792" x="212" y="482.362" fill="#000" fill-opacity="1" stroke="none" stroke-linecap="butt" stroke-linejoin="miter" stroke-opacity="1" stroke-width="1" font-family="Bitstream Vera Sans" font-size="40" font-style="normal" font-weight="normal" xml:space="preserve"><tspan id="tspan13794" x="212" y="482.362" font-size="16">monitoring</tspan></text><g id="g18431" transform="matrix(0.6410364,0.1532434,0.1532434,-0.6410364,137.33982,329.33172)"><path id="path2112" fill="url(#linearGradient18446)" fill-opacity="1" stroke="none" stroke-miterlimit="4" stroke-opacity="1" stroke-width=".375" d="M 201.54856,-154.94205 C 201.40694,-154.71673 207.51756,-143.34056 207.64188,-143.10525 C 207.76621,-142.86995 213.7025,-131.42422 213.96844,-131.41424 C 214.15683,-131.40716 217.01702,-136.0523 219.07051,-139.3443 C 225.04825,-136.51518 229.21633,-130.47898 229.21633,-123.42586 C 229.21633,-113.64109 221.27507,-105.69982 211.4903,-105.69982 C 201.70553,-105.69982 193.76426,-113.64109 193.76426,-123.42586 C 193.76426,-127.47552 195.17865,-131.16896 197.4669,-134.15477 C 194.45923,-138.03668 191.49162,-139.50925 189.36191,-140.13148 C 185.84073,-135.46614 183.67675,-129.71791 183.67675,-123.42586 C 183.67675,-108.06205 196.12649,-95.612311 211.4903,-95.612311 C 226.8541,-95.612311 239.333,-108.06205 239.333,-123.42586 C 239.333,-134.09561 233.24023,-143.24785 224.40581,-147.88662 C 226.26192,-150.84372 228.20412,-153.82492 228.13761,-153.95079 C 228.01328,-154.18609 215.10902,-154.58221 214.84308,-154.59219 C 214.57714,-154.60217 201.69017,-155.16737 201.54856,-154.94205 z"/><path id="path1301" fill="url(#linearGradient18448)" fill-opacity="1" stroke="none" stroke-miterlimit="4" stroke-opacity="1" stroke-width=".375" d="M 199.89231,-155.94205 C 199.75069,-155.71673 205.86131,-144.34056 205.98563,-144.10525 C 206.10996,-143.86995 212.04625,-132.42422 212.31219,-132.41424 C 212.50058,-132.40716 215.36077,-137.0523 217.41426,-140.3443 C 223.392,-137.51518 227.56008,-131.47898 227.56008,-124.42586 C 227.56008,-114.64109 219.61882,-106.69982 209.83405,-106.69982 C 200.04928,-106.69982 192.10801,-114.64109 192.10801,-124.42586 C 192.10801,-128.47552 193.5224,-132.16896 195.81065,-135.15477 C 192.80298,-139.03668 189.83537,-140.50925 187.70566,-141.13148 C 184.18448,-136.46614 182.0205,-130.71791 182.0205,-124.42586 C 182.0205,-109.06205 194.47024,-96.612311 209.83405,-96.612311 C 225.19785,-96.612311 237.67675,-109.06205 237.67675,-124.42586 C 237.67675,-135.09561 231.58398,-144.24785 222.74956,-148.88662 C 224.60567,-151.84372 226.54787,-154.82492 226.48136,-154.95079 C 226.35703,-155.18609 213.45277,-155.58221 213.18683,-155.59219 C 212.92089,-155.60217 200.03392,-156.16737 199.89231,-155.94205 z"/><path id="path2136" fill="#d7f1ff" fill-opacity="1" fill-rule="evenodd" stroke="none" stroke-linecap="butt" stroke-linejoin="miter" stroke-opacity="1" stroke-width="1" d="M 201.34342,-155.11231 C 201.34342,-155.11231 209.17675,-154.61231 210.67675,-154.61231 C 212.17675,-154.61231 217.17675,-155.61231 220.17675,-154.61231 C 223.17675,-153.61231 224.67675,-153.61231 221.17675,-153.61231 C 217.67675,-153.61231 202.67675,-154.11231 202.67675,-154.11231 C 202.67675,-154.11231 209.67675,-145.11231 209.67675,-141.11231 C 209.67675,-137.11231 201.34342,-155.11231 201.34342,-155.11231 z"/><path id="path2138" fill="#daf0fe" fill-opacity="1" fill-rule="evenodd" stroke="none" stroke-linecap="butt" stroke-linejoin="miter" stroke-opacity="1" stroke-width="1" d="M 188.01008,-139.77898 C 188.01008,-139.77898 190.17675,-139.61231 189.67675,-138.61231 C 189.17675,-137.61231 183.67675,-125.61231 186.67675,-117.11231 C 189.67675,-108.61231 183.67675,-121.61231 183.67675,-121.61231 C 183.67675,-121.61231 181.34342,-131.44564 188.01008,-139.77898 z"/></g></g><g id="g13545" transform="matrix(1.1123305,0,0,1.1123305,227.97288,78.74437)"><rect id="rect13481" width="222.632" height="268.557" x="-160" y="269.987" fill="#cbcbcb" fill-opacity="1" stroke="none" stroke-dasharray="none" stroke-dashoffset="0" stroke-miterlimit="4" stroke-opacity="1" stroke-width="3.543"/><text id="text13485" x="-144.762" y="303.027" fill="#000" fill-opacity="1" stroke="none" stroke-linecap="butt" stroke-linejoin="miter" stroke-opacity="1" stroke-width="1" font-family="Bitstream Vera Sans" font-size="20" font-style="normal" font-weight="normal" xml:space="preserve"><tspan id="tspan13487" x="-144.762" y="303.027">Application Plugins</tspan></text><g id="g13508" transform="translate(14.038028,5.3940795)"><g id="g13500" transform="translate(-4.9657593,113.82916)"><rect id="rect13502" width="114.899" height="36.747" x="-116.671" y="204.134" fill="#969696" fill-opacity="1" stroke="#000" stroke-dasharray="none" stroke-dashoffset="0" stroke-miterlimit="4" stroke-opacity="1" stroke-width=".956" ry="18.373"/><text id="text13504" x="-105.034" y="228.533" fill="#000" fill-opacity="1" stroke="none" stroke-linecap="butt" stroke-linejoin="miter" stroke-opacity="1" stroke-width="1" font-family="Bitstream Vera Sans" font-size="18" font-style="normal" font-weight="normal" xml:space="preserve"><tspan id="tspan13506" x="-105.034" y="228.533">Executable</tspan></text></g></g><g id="g13514" transform="translate(56.20592,59.261774)"><g id="g13516" transform="translate(-4.9657593,113.82916)"><rect id="rect13518" width="114.899" height="36.747" x="-157.202" y="204.665" fill="#969696" fill-opacity="1" stroke="#000" stroke-dasharray="none" stroke-dashoffset="0" stroke-miterlimit="4" stroke-opacity="1" stroke-width=".956" ry="18.373"/><text id="text13520" x="-97.98" y="226.942" fill="#000" fill-opacity="1" stroke="none" stroke-linecap="butt" stroke-linejoin="miter" stroke-opacity="1" stroke-width="1" font-family="Bitstream Vera Sans" font-size="18" font-style="normal" font-weight="normal" text-anchor="middle" xml:space="preserve" style="text-align:center"><tspan id="tspan13522" x="-97.98" y="226.942">Gaudi<tspan id="tspan73727" font-size="11" font-weight="normal" style="-inkscape-font-specification:Bitstream Vera Sans"> (LHCb)</tspan></tspan></text></g></g><g id="g13524" transform="translate(56.737417,108.46311)"><rect id="rect13528" width="114.899" height="36.747" x="-162.168" y="318.494" fill="#969696" fill-opacity="1" stroke="#000" stroke-dasharray="none" stroke-dashoffset="0" stroke-miterlimit="4" stroke-opacity="1" stroke-width=".956" ry="18.373"/><text id="text13530" x="-102.257" y="341.301" fill="#000" fill-opacity="1" stroke="none" stroke-linecap="butt" stroke-linejoin="miter" stroke-opacity="1" stroke-width="1" font-family="Bitstream Vera Sans" font-size="18" font-style="normal" font-weight="normal" text-anchor="middle" xml:space="preserve" style="text-align:center"><tspan id="tspan13532" x="-102.257" y="341.301">Athena<tspan id="tspan73729" font-size="11"> (Atlas)</tspan></tspan></text></g><g id="g13537" transform="translate(56.737417,161.98333)"><rect id="rect13539" width="114.899" height="36.747" x="-162.168" y="318.494" fill="#969696" fill-opacity="1" stroke="#000" stroke-dasharray="none" stroke-dashoffset="0" stroke-miterlimit="4" stroke-opacity="1" stroke-width=".956" ry="18.373"/><text id="text13541" x="-110" y="342.362" fill="#000" fill-opacity="1" stroke="none" stroke-linecap="butt" stroke-linejoin="miter" stroke-opacity="1" stroke-width="1" font-family="Bitstream Vera Sans" font-size="18" font-style="normal" font-weight="normal" text-anchor="middle" xml:space="preserve" style="text-align:center"><tspan id="tspan13543" x="-110" y="342.362">...</tspan></text></g></g><g id="g13568" transform="matrix(1.1116199,0,0,1.1116199,876.0729,81.535641)"><rect id="rect13570" width="309.099" height="269.876" x="-192.359" y="266.501" fill="#cbcbcb" fill-opacity="1" stroke="none" stroke-dasharray="none" stroke-dashoffset="0" stroke-miterlimit="4" stroke-opacity="1" stroke-width="3.543"/><text id="text13572" x="-91.057" y="298.471" fill="#000" fill-opacity="1" stroke="none" stroke-linecap="butt" stroke-linejoin="miter" stroke-opacity="1" stroke-width="1" font-family="Bitstream Vera Sans" font-size="20" font-style="normal" font-weight="normal" xml:space="preserve"><tspan id="tspan13574" x="-91.057" y="298.471">Job Plugins</tspan></text><g id="g13604" transform="translate(-10.293011,1.2598353)"><rect id="rect13606" width="114.899" height="36.747" x="-162.168" y="318.494" fill="#969696" fill-opacity="1" stroke="#000" stroke-dasharray="none" stroke-dashoffset="0" stroke-miterlimit="4" stroke-opacity="1" stroke-width=".956" ry="0"/><text id="text13608" x="-110" y="342.362" fill="#000" fill-opacity="1" stroke="none" stroke-linecap="butt" stroke-linejoin="miter" stroke-opacity="1" stroke-width="1" font-family="Bitstream Vera Sans" font-size="18" font-style="normal" font-weight="normal" text-anchor="middle" xml:space="preserve" style="text-align:center"><tspan id="tspan13610" x="-110" y="342.362">Localhost</tspan></text></g><g id="g13612" transform="translate(-10.824507,50.728339)"><rect id="rect13614" width="114.899" height="36.747" x="-162.168" y="318.494" fill="#969696" fill-opacity="1" stroke="#000" stroke-dasharray="none" stroke-dashoffset="0" stroke-miterlimit="4" stroke-opacity="1" stroke-width=".956" ry="0"/><text id="text13616" x="-110" y="342.362" fill="#000" fill-opacity="1" stroke="none" stroke-linecap="butt" stroke-linejoin="miter" stroke-opacity="1" stroke-width="1" font-family="Bitstream Vera Sans" font-size="18" font-style="normal" font-weight="normal" text-anchor="middle" xml:space="preserve" style="text-align:center"><tspan id="tspan13618" x="-110" y="342.362">Batch</tspan></text><text id="text13620" x="-62.03" y="328.631" fill="#000" fill-opacity="1" stroke="none" stroke-linecap="butt" stroke-linejoin="miter" stroke-opacity="1" stroke-width="1" font-family="Bitstream Vera Sans" font-size="40" font-style="normal" font-weight="normal" xml:space="preserve"><tspan style="text-align:center;-inkscape-font-specification:Bitstream Vera Sans Bold" id="tspan13622" x="-62.03" y="328.631" font-size="10" font-weight="bold" text-anchor="middle">LSF</tspan><tspan style="text-align:center;-inkscape-font-specification:Bitstream Vera Sans Bold" id="tspan13624" x="-62.03" y="341.131" font-size="10" font-weight="bold" text-anchor="middle">PBS</tspan><tspan style="text-align:center;-inkscape-font-specification:Bitstream Vera Sans Bold" id="tspan13626" x="-62.03" y="353.631" font-size="10" font-weight="bold" text-anchor="middle">SGE</tspan></text></g><g id="g13628" transform="translate(-10.824507,100.72834)"><rect id="rect13630" width="114.899" height="36.747" x="-162.168" y="318.494" fill="#969696" fill-opacity="1" stroke="#000" stroke-dasharray="none" stroke-dashoffset="0" stroke-miterlimit="4" stroke-opacity="1" stroke-width=".956" ry="0"/><text id="text13632" x="-110" y="342.362" fill="#000" fill-opacity="1" stroke="none" stroke-linecap="butt" stroke-linejoin="miter" stroke-opacity="1" stroke-width="1" font-family="Bitstream Vera Sans" font-size="18" font-style="normal" font-weight="normal" text-anchor="middle" xml:space="preserve" style="text-align:center"><tspan id="tspan13634" x="-110" y="342.362">Condor</tspan></text></g><g id="g13636" transform="translate(-10.824507,148.5383)"><rect id="rect13638" width="114.899" height="36.747" x="-162.168" y="318.494" fill="#969696" fill-opacity="1" stroke="#000" stroke-dasharray="none" stroke-dashoffset="0" stroke-miterlimit="4" stroke-opacity="1" stroke-width=".956" ry="0"/><text id="text13640" x="-110" y="342.362" fill="#000" fill-opacity="1" stroke="none" stroke-linecap="butt" stroke-linejoin="miter" stroke-opacity="1" stroke-width="1" font-family="Bitstream Vera Sans" font-size="18" font-style="normal" font-weight="normal" text-anchor="middle" xml:space="preserve" style="text-align:center"><tspan id="tspan13642" x="-110" y="342.362">ssh</tspan></text></g><g id="g13644" transform="translate(129.17549,0.7283392)"><rect id="rect13646" width="134.899" height="36.747" x="-162.168" y="318.494" fill="#969696" fill-opacity="1" stroke="#000" stroke-dasharray="none" stroke-dashoffset="0" stroke-miterlimit="4" stroke-opacity="1" stroke-width=".956" ry="0"/><text id="text13648" x="-109.885" y="341.449" fill="#000" fill-opacity="1" stroke="none" stroke-linecap="butt" stroke-linejoin="miter" stroke-opacity="1" stroke-width="1" font-family="Bitstream Vera Sans" font-size="18" font-style="normal" font-weight="normal" text-anchor="middle" xml:space="preserve" style="text-align:center"><tspan id="tspan13650" x="-109.885" y="341.449">EGEE Grid</tspan></text><text id="text13680" x="-43.897" y="332.547" fill="#000" fill-opacity="1" stroke="none" stroke-linecap="butt" stroke-linejoin="miter" stroke-opacity="1" stroke-width="1" font-family="Bitstream Vera Sans" font-size="40" font-style="normal" font-weight="normal" xml:space="preserve"><tspan style="text-align:center;-inkscape-font-specification:Bitstream Vera Sans Bold" id="tspan13686" x="-43.897" y="332.547" font-size="11" font-weight="bold" text-anchor="middle">gLite</tspan><tspan id="tspan13693" x="-43.897" y="346.297" font-size="11" font-weight="bold" text-anchor="middle" style="text-align:center;-inkscape-font-specification:Bitstream Vera Sans Bold">EDG</tspan></text></g><g id="g13695" transform="translate(129.17549,48.538302)"><rect id="rect13697" width="134.899" height="36.747" x="-162.168" y="318.494" fill="#969696" fill-opacity="1" stroke="#000" stroke-dasharray="none" stroke-dashoffset="0" stroke-miterlimit="4" stroke-opacity="1" stroke-width=".956" ry="0"/><text id="text13699" x="-109.885" y="341.449" fill="#000" fill-opacity="1" stroke="none" stroke-linecap="butt" stroke-linejoin="miter" stroke-opacity="1" stroke-width="1" font-family="Bitstream Vera Sans" font-size="18" font-style="normal" font-weight="normal" text-anchor="middle" xml:space="preserve" style="text-align:center"><tspan id="tspan13701" x="-109.885" y="341.449">NorduGrid</tspan></text><text id="text13707" x="-43.897" y="332.547" fill="#000" fill-opacity="1" stroke="none" stroke-linecap="butt" stroke-linejoin="miter" stroke-opacity="1" stroke-width="1" font-family="Bitstream Vera Sans" font-size="40" font-style="normal" font-weight="normal" xml:space="preserve"><tspan id="tspan13711" x="-43.897" y="332.547" font-size="11" font-weight="bold" text-anchor="middle" style="text-align:center;-inkscape-font-specification:Bitstream Vera Sans Bold">ARC</tspan></text></g><g id="g13715" transform="translate(129.17549,100.72834)"><rect id="rect13717" width="134.899" height="36.747" x="-162.168" y="318.494" fill="#969696" fill-opacity="1" stroke="#000" stroke-dasharray="none" stroke-dashoffset="0" stroke-miterlimit="4" stroke-opacity="1" stroke-width=".956" ry="0"/><text id="text13719" x="-90.709" y="341.773" fill="#000" fill-opacity="1" stroke="none" stroke-linecap="butt" stroke-linejoin="miter" stroke-opacity="1" stroke-width="1" font-family="Bitstream Vera Sans" font-size="18" font-style="normal" font-weight="normal" text-anchor="middle" xml:space="preserve" style="text-align:center"><tspan id="tspan13721" x="-90.709" y="341.773">DIRAC <tspan id="tspan13743" font-size="11" writing-mode="lr-tb" style="-inkscape-font-specification:Bitstream Vera Sans">(LHCb)</tspan></tspan></text></g><g id="g13745" transform="translate(129.70698,148.00681)"><rect id="rect13747" width="134.899" height="36.747" x="-162.168" y="318.494" fill="#969696" fill-opacity="1" stroke="#000" stroke-dasharray="none" stroke-dashoffset="0" stroke-miterlimit="4" stroke-opacity="1" stroke-width=".956" ry="0"/><text id="text13749" x="-90.709" y="341.773" fill="#000" fill-opacity="1" stroke="none" stroke-linecap="butt" stroke-linejoin="miter" stroke-opacity="1" stroke-width="1" font-family="Bitstream Vera Sans" font-size="18" font-style="normal" font-weight="normal" text-anchor="middle" xml:space="preserve" style="text-align:center"><tspan id="tspan13751" x="-90.709" y="341.773">PANDA <tspan id="tspan13753" font-size="11" writing-mode="lr-tb" style="-inkscape-font-specification:Bitstream Vera Sans">(Atlas)</tspan></tspan></text></g></g><g id="g13802" transform="matrix(1.1151808,0,0,1.1151808,542.01559,181.28237)"><rect id="rect13804" width="295.286" height="175.764" x="-201.709" y="269.457" fill="#cbcbcb" fill-opacity="1" stroke="none" stroke-dasharray="none" stroke-dashoffset="0" stroke-miterlimit="4" stroke-opacity="1" stroke-width="3.543"/><text id="text13806" x="-50.357" y="292.544" fill="#000" fill-opacity="1" stroke="none" stroke-linecap="butt" stroke-linejoin="miter" stroke-opacity="1" stroke-width="1" font-family="Bitstream Vera Sans" font-size="20" font-style="normal" font-weight="normal" text-anchor="middle" xml:space="preserve" style="text-align:center"><tspan id="tspan13808" x="-50.357" y="292.544">Persistency Manager</tspan></text><g id="g65727" transform="matrix(0.745601,0,0,0.745601,-374.99216,-67.752539)"><g id="g8749"><g id="g8763" transform="matrix(1,0,0,0.500826,-15.895352,317.15325)"><g id="g66153" transform="matrix(0.1763436,0,0,0.4561265,320.82276,339.39468)"><path id="path569" fill="#7a7a7a" fill-opacity="1" fill-rule="evenodd" stroke="#000" stroke-width="15.902" d="M 426.278,378.046 L 79.4376,379.165 C 79.4376,379.165 -4.63207,356.939 -1.27547,255.125 C -13.892,169.635 56.2895,146.476 60.7648,142 C 65.2402,137.525 427.397,137.496 427.397,137.496 L 427.397,137.496 L 426.278,378.046 z" font-size="12" transform="matrix(0,-0.604122,1.608296,0,-165.2214,394.5863)"/><path id="path568" fill="none" fill-rule="evenodd" stroke="#000" stroke-width="41.411" d="M 495.64613,253.85521 A 234.95641,236.07524 0 1 1 25.733322,253.85521 A 234.95641,236.07524 0 1 1 495.64613,253.85521 z" font-size="12" transform="matrix(0,-0.174045,0.823205,0,39.47672,182.772)"/><path id="path566" fill="#ccc" fill-opacity="1" fill-rule="evenodd" stroke-width="3.75" d="M 495.64613,253.85521 A 234.95641,236.07524 0 1 1 25.733322,253.85521 A 234.95641,236.07524 0 1 1 495.64613,253.85521 z" font-size="12" transform="matrix(0,-0.169729,0.807961,0,43.34661,181.9851)"/></g></g></g></g><g id="g73689" transform="matrix(0.6164961,0,0,0.6164961,78.476176,83.149793)"><g id="g73644" transform="matrix(0.5346746,0,0,0.500826,-209.52796,351.80418)"><g id="g2340" transform="translate(-342.1883,-367.9123)"><path id="path2336" fill="#fff" fill-opacity="1" stroke="#000" stroke-dashoffset="0" stroke-linecap="round" stroke-linejoin="round" stroke-miterlimit="4" stroke-opacity="1" stroke-width="7.46" d="M 381.97658,406.34825 L 381.97658,415.70033 L 373.32653,415.70033 L 373.32653,507.16515 L 495.27963,507.16515 L 495.27963,415.70033 L 410.1331,415.70033 L 410.1331,406.34825 L 381.97658,406.34825 z"/><path id="path2338" fill="none" fill-opacity=".75" fill-rule="evenodd" stroke="#000" stroke-dasharray="none" stroke-linecap="butt" stroke-linejoin="miter" stroke-miterlimit="4" stroke-opacity="1" stroke-width="7.46" d="M 380.11885,415.72784 L 412.06569,415.69989"/></g></g><g id="g73649" transform="matrix(0.5346746,0,0,0.500826,-201.38703,361.80418)"><g id="g73651" transform="translate(-342.1883,-367.9123)"><path id="path73653" fill="#fff" fill-opacity="1" stroke="#000" stroke-dashoffset="0" stroke-linecap="round" stroke-linejoin="round" stroke-miterlimit="4" stroke-opacity="1" stroke-width="7.46" d="M 381.97658,406.34825 L 381.97658,415.70033 L 373.32653,415.70033 L 373.32653,507.16515 L 495.27963,507.16515 L 495.27963,415.70033 L 410.1331,415.70033 L 410.1331,406.34825 L 381.97658,406.34825 z"/><path id="path73655" fill="none" fill-opacity=".75" fill-rule="evenodd" stroke="#000" stroke-dasharray="none" stroke-linecap="butt" stroke-linejoin="miter" stroke-miterlimit="4" stroke-opacity="1" stroke-width="7.46" d="M 380.11885,415.72784 L 412.06569,415.69989"/></g></g><g id="g73657" transform="matrix(0.5346746,0,0,0.500826,-192.53442,372.47726)"><g id="g73659" transform="translate(-342.1883,-367.9123)"><path id="path73661" fill="#fff" fill-opacity="1" stroke="#000" stroke-dashoffset="0" stroke-linecap="round" stroke-linejoin="round" stroke-miterlimit="4" stroke-opacity="1" stroke-width="7.46" d="M 381.97658,406.34825 L 381.97658,415.70033 L 373.32653,415.70033 L 373.32653,507.16515 L 495.27963,507.16515 L 495.27963,415.70033 L 410.1331,415.70033 L 410.1331,406.34825 L 381.97658,406.34825 z"/><path id="path73663" fill="none" fill-opacity=".75" fill-rule="evenodd" stroke="#000" stroke-dasharray="none" stroke-linecap="butt" stroke-linejoin="miter" stroke-miterlimit="4" stroke-opacity="1" stroke-width="7.46" d="M 380.11885,415.72784 L 412.06569,415.69989"/></g></g><g id="g73496" transform="matrix(0.5073301,0,0,0.500826,-174.68107,382.09159)"><g id="g2344" transform="translate(-172.9243,-363.7353)"><path id="rect2324" fill="#fff" fill-opacity="1" stroke="#000" stroke-dashoffset="0" stroke-linecap="round" stroke-linejoin="round" stroke-miterlimit="4" stroke-opacity="1" stroke-width="7.658" d="M 198.27946,405.95289 L 198.27946,415.30497 L 189.62941,415.30497 L 189.62941,506.76979 L 311.58251,506.76979 L 311.58251,415.30497 L 226.43598,415.30497 L 226.43598,405.95289 L 198.27946,405.95289 z"/><rect id="rect2328" width="121.953" height="84.672" x="409.833" y="467.735" fill="#fff" fill-opacity="1" stroke="#000" stroke-dasharray="none" stroke-dashoffset="0" stroke-linecap="round" stroke-linejoin="round" stroke-miterlimit="4" stroke-opacity="1" stroke-width="7.368" opacity="1" transform="matrix(1,0,-0.397105,0.917773,0,0)"/></g></g></g><text id="text73707" x="2.144" y="385.325" fill="#000" fill-opacity="1" stroke="none" stroke-linecap="butt" stroke-linejoin="miter" stroke-opacity="1" stroke-width="1" font-family="Bitstream Vera Sans" font-size="40" font-style="normal" font-weight="normal" text-anchor="middle" xml:space="preserve" style="text-align:center"><tspan id="tspan73715" x="4.691" y="385.325" font-size="16" text-anchor="middle" style="text-align:center">File </tspan><tspan id="tspan73725" x="2.144" y="405.325" font-size="16" text-anchor="middle" style="text-align:center">Workspace</tspan><tspan id="tspan73731" x="2.144" y="422.335" font-size="13" text-anchor="middle" style="text-align:center">input/output files</tspan></text><text id="text73717" x="-119.342" y="384.292" fill="#000" fill-opacity="1" stroke="none" stroke-linecap="butt" stroke-linejoin="miter" stroke-opacity="1" stroke-width="1" font-family="Bitstream Vera Sans" font-size="40" font-style="normal" font-weight="normal" text-anchor="middle" xml:space="preserve" style="text-align:center"><tspan id="tspan73719" x="-116.795" y="384.292" font-size="16" text-anchor="middle" style="text-align:center">Job </tspan><tspan id="tspan73721" x="-119.342" y="404.292" font-size="16" text-anchor="middle" style="text-align:center">Repository</tspan><tspan id="tspan73733" x="-119.342" y="421.302" font-size="13" text-anchor="middle" style="text-align:center">metadata</tspan></text></g><g id="g73801" transform="translate(-42.15625,41.19135)"><path id="path73785" fill="none" fill-rule="evenodd" stroke="#000" stroke-linecap="butt" stroke-linejoin="miter" stroke-opacity="1" stroke-width="1" marker-end="url(#Arrow1Lend)" d="M 660,144.09448 L 550,204.09448"/><path id="path77309" fill="#fff" fill-opacity="1" stroke="#767676" stroke-dasharray="none" stroke-dashoffset="0" stroke-miterlimit="4" stroke-opacity="1" stroke-width=".901" d="M 289.99531,153.57194 A 55,40 0 1 1 289.99162,153.39637" transform="matrix(1.2304478,0,0,1,418.67041,-33.912762)"/><path id="path73799" fill="none" fill-rule="evenodd" stroke="#000" stroke-linecap="butt" stroke-linejoin="miter" stroke-opacity="1" stroke-width="1" marker-end="url(#Arrow1Lend)" d="M 515.5,153.59448 C 515.5,203.59448 515.5,203.59448 515.5,203.59448"/><path id="path77307" fill="#fff" fill-opacity="1" stroke="#767676" stroke-dasharray="none" stroke-dashoffset="0" stroke-miterlimit="4" stroke-opacity="1" stroke-width=".999" d="M 289.99531,153.57194 A 55,40 0 1 1 289.99162,153.39637" transform="translate(279.33809,-33.909461)"/><path id="path77305" fill="#fff" fill-opacity="1" stroke="#767676" stroke-dasharray="none" stroke-dashoffset="0" stroke-miterlimit="4" stroke-opacity="1" stroke-width=".999" d="M 289.99531,153.57194 A 55,40 0 1 1 289.99162,153.39637" transform="translate(92.499697,-31.002388)"/><g id="g7905" transform="matrix(1.7910682,0,0,1.6952802,-213.27352,-169.49184)"><text id="text73739" x="287.677" y="176.015" fill="#000" fill-opacity="1" stroke="none" stroke-linecap="butt" stroke-linejoin="miter" stroke-opacity="1" stroke-width="1" font-family="Bitstream Vera Sans" font-size="22.955" font-style="normal" font-weight="normal" transform="scale(0.9728921,1.0278632)" xml:space="preserve" style="-inkscape-font-specification:Bitstream Vera Sans"><tspan id="tspan73741" x="287.677" y="176.015" font-size="22.955" font-weight="normal" style="-inkscape-font-specification:Bitstream Vera Sans">GUI</tspan></text></g><g id="g73755" transform="matrix(1.7910682,0,0,1.6952802,-76.956786,-166.64585)"><text id="text73779" x="416.04" y="170.142" fill="#000" fill-opacity="1" stroke="none" stroke-linecap="butt" stroke-linejoin="miter" stroke-opacity="1" stroke-width="1" font-family="Bitstream Vera Sans" font-size="22.955" font-style="normal" font-weight="normal" transform="scale(0.9728921,1.0278632)" xml:space="preserve" style="-inkscape-font-specification:Bitstream Vera Sans"><tspan id="tspan73781" x="416.04" y="170.142" font-weight="normal" style="-inkscape-font-specification:Bitstream Vera Sans">script</tspan></text></g><path id="path73783" fill="none" fill-rule="evenodd" stroke="#000" stroke-dasharray="none" stroke-linecap="butt" stroke-linejoin="miter" stroke-miterlimit="4" stroke-opacity="1" stroke-width=".999" marker-end="url(#Arrow1Lend)" marker-start="none" d="M 376,142.59242 L 480,204.09448"/><g id="g73792" transform="translate(26.6574,-26.922336)"><text id="text73763" x="454.589" y="161.448" fill="#000" fill-opacity="1" stroke="none" stroke-linecap="butt" stroke-linejoin="miter" stroke-opacity="1" stroke-width="1" font-family="Bitstream Vera Sans" font-size="40" font-style="normal" font-weight="normal" xml:space="preserve" style="-inkscape-font-specification:Bitstream Vera Sans"><tspan style="-inkscape-font-specification:Bitstream Vera Sans" id="tspan73765" x="454.589" y="161.448" font-weight="normal">CLI</tspan></text></g><g id="g77290" transform="translate(20.811439,-31.237676)"><g id="g77285" transform="translate(0.1540389,-27.007426)"><ellipse id="ellipse73757" cx="30" cy="93.919" fill="#000" fill-opacity=".011" stroke="#000" stroke-dasharray="none" stroke-miterlimit="4" stroke-opacity="1" stroke-width="4.506" rx="22.248" ry="11.6" transform="matrix(1.2876527,0,0,1.2187878,453.08904,-6.4893939)"/><circle id="circle73759" cx="30" cy="57.729" r="7" fill="none" fill-opacity="1" stroke="#000" stroke-dasharray="none" stroke-miterlimit="4" stroke-opacity="1" stroke-width="4.506" transform="matrix(1.2876527,0,0,1.2187878,451.41851,-0.6796519)"/><path id="path73761" fill="none" fill-opacity="1" fill-rule="evenodd" stroke="#000" stroke-dasharray="none" stroke-dashoffset="56.96" stroke-linecap="butt" stroke-linejoin="miter" stroke-miterlimit="4" stroke-opacity="1" stroke-width="3.102" d="M 382.47393,121.38583 A 13.163102,13.659823 0 1 1 356.14934,121.68182" opacity="1" transform="matrix(1.9732843,0,0,1.6784122,-238.38598,-138.89823)"/></g></g></g></g></svg>