<svg xmlns="http://www.w3.org/2000/svg" xmlns:svg="http://www.w3.org/2000/svg" xmlns:xlink="http://www.w3.org/1999/xlink" id="Layer_1" width="1052.362" height="744.094" x="0" y="0" enable-background="new 0 0 339.31 115.968" version="1.0" viewBox="0 0 339.31 115.968" xml:space="preserve"><defs id="defs70"><linearGradient id="linearGradient30627"><stop id="stop30629" offset="0" stop-color="#fff" stop-opacity="1"/><stop id="stop30631" offset="0" stop-color="#bcbcbc" stop-opacity="1"/><stop id="stop30633" offset="1" stop-color="#fff" stop-opacity="1"/></linearGradient><linearGradient id="linearGradient11957" x1="1095.906" x2="1346.95" y1="124.005" y2="339.658" gradientTransform="matrix(0.8485224,0,0,0.7208466,413.64924,-37.945786)" gradientUnits="userSpaceOnUse" xlink:href="#linearGradient30627"/><marker id="DistanceIn" orient="auto" overflow="visible" refX="0" refY="0"><g id="g5113"><path id="path2306" fill="none" stroke="#fff" stroke-linecap="square" stroke-width="1.15" d="M 0,0 L 2,0"/><path id="path2302" fill="#000" fill-rule="evenodd" stroke="none" d="M 0,0 L 13,4 L 9,0 13,-4 L 0,0 z"/><path id="path2304" fill="none" stroke="#000" stroke-linecap="square" stroke-width="1" d="M 0,-4 L 0,40"/></g></marker><marker id="Tail" orient="auto" overflow="visible" refX="0" refY="0"><g id="g5119" transform="scale(-1.2)"><path id="path5121" fill="none" fill-rule="evenodd" stroke="#000" stroke-linecap="round" stroke-width=".8" marker-end="none" marker-start="none" d="M -3.8048674,-3.9585227 L 0.54352094,0"/><path id="path5123" fill="none" fill-rule="evenodd" stroke="#000" stroke-linecap="round" stroke-width=".8" marker-end="none" marker-start="none" d="M -1.2866832,-3.9585227 L 3.0617053,0"/><path id="path5125" fill="none" fill-rule="evenodd" stroke="#000" stroke-linecap="round" stroke-width=".8" marker-end="none" marker-start="none" d="M 1.3053582,-3.9585227 L 5.6537466,0"/><path id="path5127" fill="none" fill-rule="evenodd" stroke="#000" stroke-linecap="round" stroke-width=".8" marker-end="none" marker-start="none" d="M -3.8048674,4.1775838 L 0.54352094,0.21974226"/><path id="path5129" fill="none" fill-rule="evenodd" stroke="#000" stroke-linecap="round" stroke-width=".8" marker-end="none" marker-start="none" d="M -1.2866832,4.1775838 L 3.0617053,0.21974226"/><path id="path5131" fill="none" fill-rule="evenodd" stroke="#000" stroke-linecap="round" stroke-width=".8" marker-end="none" marker-start="none" d="M 1.3053582,4.1775838 L 5.6537466,0.21974226"/></g></marker><marker id="Arrow2Lend" orient="auto" overflow="visible" refX="0" refY="0"><path id="path5146" fill-rule="evenodd" stroke-linejoin="round" stroke-width=".625" d="M 8.7185878,4.0337352 L -2.2072895,0.016013256 L 8.7185884,-4.0017078 C 6.9730900,-1.6296469 6.9831476,1.6157441 8.7185878,4.0337352 z" font-size="12" transform="scale(1.1) rotate(180) translate(1,0)"/></marker><marker id="TriangleOutL" orient="auto" overflow="visible" refX="0" refY="0"><path id="path5069" fill-rule="evenodd" stroke="#000" stroke-width="1pt" marker-start="none" d="M 5.77,0.0 L -2.88,5.0 L -2.88,-5.0 L 5.77,0.0 z" transform="scale(0.8)"/></marker><linearGradient id="linearGradient8977"><stop id="stop8979" offset="0" stop-color="#000" stop-opacity=".498"/><stop id="stop8981" offset="1" stop-color="#000" stop-opacity="0"/></linearGradient><linearGradient id="linearGradient8967"><stop id="stop8973" offset="0" stop-color="#000" stop-opacity=".498"/><stop id="stop8971" offset="1" stop-color="#000" stop-opacity="0"/></linearGradient><linearGradient id="linearGradient8929"><stop id="stop8951" offset="0" stop-color="#000" stop-opacity=".122"/><stop id="stop8933" offset="1" stop-color="#000" stop-opacity="0"/></linearGradient><linearGradient id="linearGradient7992"><stop id="stop7994" offset="0" stop-color="#000" stop-opacity="1"/><stop id="stop8941" offset=".371" stop-color="#000" stop-opacity=".498"/><stop id="stop8943" offset=".533" stop-color="#000" stop-opacity=".247"/><stop id="stop7996" offset="1" stop-color="#000" stop-opacity="0"/></linearGradient><linearGradient id="linearGradient7976"><stop id="stop7984" offset="0" stop-color="#000" stop-opacity=".498"/><stop id="stop7990" offset=".257" stop-color="#000" stop-opacity=".247"/><stop id="stop7980" offset="1" stop-color="#000" stop-opacity="0"/></linearGradient><linearGradient id="linearGradient7968"><stop id="stop7970" offset="0" stop-color="#000" stop-opacity="1"/><stop id="stop7972" offset="1" stop-color="#000" stop-opacity="0"/></linearGradient><linearGradient id="linearGradient7958"><stop id="stop7960" offset="0" stop-color="#000" stop-opacity="1"/><stop id="stop7962" offset="1" stop-color="#000" stop-opacity="0"/></linearGradient><marker id="DiamondL" orient="auto" overflow="visible" refX="0" refY="0"><path id="path6034" fill-rule="evenodd" stroke="#000" stroke-width="1pt" marker-start="none" d="M 0,-7.0710768 L -7.0710894,0 L 0,7.0710589 L 7.0710462,0 L 0,-7.0710768 z" transform="scale(0.8)"/></marker><linearGradient id="linearGradient7940"><stop id="stop7942" offset="0" stop-color="#000" stop-opacity="1"/><stop id="stop7944" offset="1" stop-color="#000" stop-opacity="0"/></linearGradient><linearGradient id="linearGradient7932"><stop id="stop7934" offset="0" stop-color="#000" stop-opacity="1"/><stop id="stop7936" offset="1" stop-color="#000" stop-opacity="0"/></linearGradient><marker id="Arrow1Send" orient="auto" overflow="visible" refX="0" refY="0"><path id="path6099" fill-rule="evenodd" stroke="#000" stroke-width="1pt" marker-start="none" d="M 0.0,0.0 L 5.0,-5.0 L -12.5,0.0 L 5.0,5.0 L 0.0,0.0 z" transform="scale(0.2) rotate(180) translate(6,0)"/></marker><marker id="Arrow1Mend" orient="auto" overflow="visible" refX="0" refY="0"><path id="path6105" fill-rule="evenodd" stroke="#000" stroke-width="1pt" marker-start="none" d="M 0.0,0.0 L 5.0,-5.0 L -12.5,0.0 L 5.0,5.0 L 0.0,0.0 z" transform="scale(0.4) rotate(180) translate(10,0)"/></marker><marker id="Arrow2Send" orient="auto" overflow="visible" refX="0" refY="0"><path id="path6081" fill-rule="evenodd" stroke-linejoin="round" stroke-width=".625" d="M 8.7185878,4.0337352 L -2.2072895,0.016013256 L 8.7185884,-4.0017078 C 6.9730900,-1.6296469 6.9831476,1.6157441 8.7185878,4.0337352 z" font-size="12" transform="scale(0.3) rotate(180) translate(-2.3,0)"/></marker><marker id="Arrow2Mstart" orient="auto" overflow="visible" refX="0" refY="0"><path id="path6090" fill-rule="evenodd" stroke-linejoin="round" stroke-width=".625" d="M 8.7185878,4.0337352 L -2.2072895,0.016013256 L 8.7185884,-4.0017078 C 6.9730900,-1.6296469 6.9831476,1.6157441 8.7185878,4.0337352 z" font-size="12" transform="scale(0.6) translate(0,0)"/></marker><marker id="Arrow1Sstart" orient="auto" overflow="visible" refX="0" refY="0"><path id="path6102" fill-rule="evenodd" stroke="#000" stroke-width="1pt" marker-start="none" d="M 0.0,0.0 L 5.0,-5.0 L -12.5,0.0 L 5.0,5.0 L 0.0,0.0 z" transform="scale(0.2) translate(6,0)"/></marker><marker id="Arrow1Mstart" orient="auto" overflow="visible" refX="0" refY="0"><path id="path6108" fill-rule="evenodd" stroke="#000" stroke-width="1pt" marker-start="none" d="M 0.0,0.0 L 5.0,-5.0 L -12.5,0.0 L 5.0,5.0 L 0.0,0.0 z" transform="scale(0.4) translate(10,0)"/></marker><marker id="Arrow1Lstart" orient="auto" overflow="visible" refX="0" refY="0"><path id="path6114" fill-rule="evenodd" stroke="#000" stroke-width="1pt" marker-start="none" d="M 0.0,0.0 L 5.0,-5.0 L -12.5,0.0 L 5.0,5.0 L 0.0,0.0 z" transform="scale(0.8) translate(12.5,0)"/></marker><marker id="Arrow2Lstart" orient="auto" overflow="visible" refX="0" refY="0"><path id="path11101" fill-rule="evenodd" stroke-linejoin="round" stroke-width=".625" d="M 8.7185878,4.0337352 L -2.2072895,0.016013256 L 8.7185884,-4.0017078 C 6.97309,-1.6296469 6.9831476,1.6157441 8.7185878,4.0337352 z" font-size="12" transform="matrix(1.1,0,0,1.1,1.1,0)"/></marker><marker id="Arrow2Mend" orient="auto" overflow="visible" refX="0" refY="0"><path id="path11110" fill-rule="evenodd" stroke-linejoin="round" stroke-width=".625" d="M 8.7185878,4.0337352 L -2.2072895,0.016013256 L 8.7185884,-4.0017078 C 6.97309,-1.6296469 6.9831476,1.6157441 8.7185878,4.0337352 z" font-size="12" transform="scale(-0.6,-0.6)"/></marker><marker id="Arrow1Lend" orient="auto" overflow="visible" refX="0" refY="0"><path id="path11086" fill-rule="evenodd" stroke="#000" stroke-width="1pt" marker-start="none" d="M 0,0 L 5,-5 L -12.5,0 L 5,5 L 0,0 z" transform="matrix(-0.8,0,0,-0.8,-10,0)"/></marker><linearGradient id="linearGradient7953" x1="366.58" x2="366.58" y1="51.381" y2="-24.326" gradientTransform="matrix(0.656261,-7.507271e-7,-8.984647e-8,0.884451,-469.8634,-129.3549)" gradientUnits="userSpaceOnUse" xlink:href="#linearGradient7940"/><radialGradient id="radialGradient7998" cx="221.03" cy="14.511" r="18.09" fx="221.03" fy="14.511" gradientTransform="matrix(1,0,0,1.138436,25.98324,95.6877)" gradientUnits="userSpaceOnUse" xlink:href="#linearGradient7992"/><linearGradient id="linearGradient8965" x1="195.587" x2="299.857" y1="127.657" y2="127.657" gradientTransform="translate(58.03685,-3.949238e-6)" gradientUnits="userSpaceOnUse" spreadMethod="reflect" xlink:href="#linearGradient8977"/><linearGradient id="linearGradient9137" x1="102.42" x2="150.092" y1="-227.665" y2="-227.665" gradientTransform="matrix(0.995729,0,0,1.403852,159.8299,-102.7575)" gradientUnits="userSpaceOnUse" xlink:href="#linearGradient8977"/></defs><metadata id="metadata72"/><g id="g83323" transform="matrix(0.5602221,0,0,0.5970034,-0.8487328,91.109436)"><g id="g30675" transform="matrix(0.886633,0,0,0.876648,-1056.899,-88.16762)"><path id="path29857" fill="url(#linearGradient11957)" fill-opacity="1" fill-rule="evenodd" stroke="#000" stroke-dasharray="none" stroke-linecap="butt" stroke-linejoin="miter" stroke-miterlimit="4" stroke-opacity="1" stroke-width=".671" d="M 1433.0882,72.422254 C 1436.2978,63.548468 1440.7995,55.728074 1449.6421,53.245777 C 1457.1238,51.145553 1475.9857,52.1262 1480.4091,67.755574 C 1482.4392,54.420124 1513.6012,42.479257 1523.2412,43.429143 C 1532.298,44.321608 1550.8616,50.477481 1551.9677,65.478403 C 1565.2401,44.430198 1591.3952,55.863946 1599.6422,76.326623 C 1608.856,99.188103 1605.1963,113.42162 1592.4159,118.94473 C 1607.0063,125.32644 1597.9401,150.57069 1596.5044,160.19865 C 1594.7183,172.17599 1578.1207,184.53397 1550.9396,177.96424 C 1555.9224,184.07793 1549.8454,194.51678 1541.4953,199.54895 C 1536.5464,202.53136 1524.7423,198.42576 1516.2249,193.47173 C 1517.1708,202.36689 1500.4069,218.95211 1490.0101,218.0815 C 1479.6136,217.21088 1469.5817,213.65633 1467.0906,206.67901 C 1462.7132,220.10581 1414.0868,231.0079 1401.0784,223.42904 C 1387.2529,215.37428 1386.4902,191.36793 1391.1892,178.62843 C 1382.928,177.17421 1365.9695,164.18541 1366.4375,148.94181 C 1366.9059,133.69205 1379.44,117.65975 1390.9898,115.73779 C 1378.7087,108.65216 1383.8981,86.891154 1394.0004,76.84639 C 1403.7886,67.113752 1427.3289,67.456192 1433.0882,72.422254 z"/></g></g><rect id="rect67" width="42.17" height="16.51" x="0" y="111.77" fill="none"/><text id="text6137" x="45.533" y="-43.853" fill="#000" fill-opacity="1" stroke="none" stroke-linecap="butt" stroke-linejoin="miter" stroke-opacity="1" stroke-width="1" font-family="Bitstream Vera Sans" font-size="7.584" font-style="normal" font-weight="normal" xml:space="preserve"><tspan id="tspan6139" x="45.533" y="-43.853">Web Browser</tspan></text><g id="g4024" transform="translate(-0.5481803,-9.2537018)"><rect id="rect2245" width="44.762" height="18.516" x="180.748" y="-14.874" fill="none" fill-rule="evenodd" stroke="#000" stroke-dasharray="none" stroke-linecap="butt" stroke-linejoin="miter" stroke-miterlimit="4" stroke-opacity="1" stroke-width=".829" rx="0" ry="9.083"/><text id="text3133" x="209.742" y="-6.769" fill="#000" fill-opacity="1" stroke="none" stroke-linecap="butt" stroke-linejoin="miter" stroke-opacity="1" stroke-width="1" font-family="Adobe Pi Std" font-size="7.738" font-style="normal" font-weight="normal" text-anchor="middle" transform="scale(0.963902,1.03745)" writing-mode="lr-tb" xml:space="preserve" style="text-align:center;line-height:89.99999762%"><tspan id="tspan3135" x="209.742" y="-6.769" font-family="Adobe Pi Std" font-size="7.738">DIANE</tspan><tspan id="tspan3137" x="209.742" y=".195" font-family="Adobe Pi Std" font-size="7.738">Master</tspan></text></g><text id="text4030" x="191.785" y="-43.208" fill="#000" fill-opacity="1" stroke="none" stroke-linecap="butt" stroke-linejoin="miter" stroke-opacity="1" stroke-width="1" font-family="Bitstream Vera Sans" font-size="7.584" font-style="normal" font-weight="normal" xml:space="preserve"><tspan id="tspan4032" x="191.785" y="-43.208">Grid Application Portal</tspan></text><rect id="rect4929" width="129.589" height="109.852" x="180.559" y="-54.205" fill="none" stroke-dasharray="none" stroke-miterlimit="4" stroke-width="2.001" ry="12.4"/><path id="path4931" fill="none" stroke-dasharray="none" stroke-miterlimit="4" stroke-width="2.001" d="M 106.22506,45.048706 A 26.444214,18.60059 0 1 1 73.537807,26.973903"/><rect id="rect4935" width="118.443" height="76.739" x="174.727" y="-53.8" fill="none" fill-opacity="1" stroke="#000" stroke-dasharray="none" stroke-miterlimit="0" stroke-opacity="1" stroke-width=".477" ry="0"/><path id="path4937" fill="none" fill-rule="evenodd" stroke="#000" stroke-dasharray="none" stroke-linecap="butt" stroke-linejoin="miter" stroke-miterlimit="4" stroke-opacity="1" stroke-width=".632" marker-start="none" d="M 293.09876,-37.485869 C 174.78035,-37.485869 174.78035,-37.485869 174.78035,-37.485869"/><g id="g4981" transform="translate(-53.00865,114.1392)"><rect id="rect4973" width="44.624" height="25.278" x="172.565" y="-13.322" fill="#fff" fill-opacity="1" fill-rule="evenodd" stroke="#000" stroke-dasharray="none" stroke-linecap="butt" stroke-linejoin="miter" stroke-miterlimit="4" stroke-opacity="1" stroke-width=".516" rx="0" ry="12.4"/><rect id="rect4975" width="44.624" height="25.278" x="174.499" y="-11.387" fill="#fff" fill-opacity="1" fill-rule="evenodd" stroke="#000" stroke-dasharray="none" stroke-linecap="butt" stroke-linejoin="miter" stroke-miterlimit="4" stroke-opacity="1" stroke-width=".516" rx="0" ry="12.4"/><rect id="rect4977" width="44.624" height="25.278" x="176.434" y="-9.453" fill="#fff" fill-opacity="1" fill-rule="evenodd" stroke="#000" stroke-dasharray="none" stroke-linecap="butt" stroke-linejoin="miter" stroke-miterlimit="4" stroke-opacity="1" stroke-width=".516" rx="0" ry="12.4"/><rect id="rect4979" width="44.624" height="25.278" x="179.013" y="-6.873" fill="#fff" fill-opacity="1" fill-rule="evenodd" stroke="#000" stroke-dasharray="none" stroke-linecap="butt" stroke-linejoin="miter" stroke-miterlimit="4" stroke-opacity="1" stroke-width=".516" rx="0" ry="12.4"/><text id="text4963" x="208.038" y="4.059" fill="#000" fill-opacity="1" stroke="none" stroke-linecap="butt" stroke-linejoin="miter" stroke-opacity="1" stroke-width="1" font-family="Adobe Pi Std" font-size="9.028" font-style="normal" font-weight="normal" text-anchor="middle" transform="scale(0.963902,1.03745)" writing-mode="lr-tb" xml:space="preserve" style="text-align:center;line-height:89.99999762%"><tspan id="tspan4965" x="208.038" y="4.059" font-size="6">DIANE</tspan><tspan id="tspan4967" x="208.038" y="9.459" font-size="6">Worker Agent</tspan></text></g><path id="path5176" fill="none" fill-rule="evenodd" stroke="#000" stroke-dasharray="none" stroke-linecap="butt" stroke-linejoin="miter" stroke-miterlimit="4" stroke-opacity="1" stroke-width=".261" marker-end="url(#Arrow2Lend)" marker-start="url(#Arrow2Lstart)" d="M 210.64188,-3.8598502 C 145.63507,99.892903 145.63507,99.892903 145.63507,99.892903 L 145.63507,99.892903"/><g id="g5280" transform="translate(-5.9275968,2.3189411)"><g id="g4947" transform="translate(64.22493,9.672809)"><rect id="rect4949" width="44.693" height="18.899" x="180.782" y="-21.74" fill="none" fill-rule="evenodd" stroke="#000" stroke-dasharray="none" stroke-linecap="butt" stroke-linejoin="miter" stroke-miterlimit="4" stroke-opacity="1" stroke-width=".967" rx="0" ry="9.271"/><text id="text4951" x="209.742" y="-9.877" fill="#000" fill-opacity="1" stroke="none" stroke-linecap="butt" stroke-linejoin="miter" stroke-opacity="1" stroke-width="1" font-family="Adobe Pi Std" font-size="9.028" font-style="normal" font-weight="normal" text-anchor="middle" transform="scale(0.963902,1.03745)" writing-mode="lr-tb" xml:space="preserve" style="text-align:center;line-height:89.99999762%"><tspan id="tspan4955" x="209.742" y="-9.877" font-family="Adobe Pi Std" font-size="9.028">Ganga</tspan></text></g><g id="g5210" transform="translate(-63.89066,-26.36615)"><ellipse id="ellipse5212" cx="30" cy="93.919" fill="#000" fill-opacity=".011" stroke="#000" stroke-dasharray="none" stroke-miterlimit="4" stroke-opacity="1" stroke-width="7.16" rx="22.248" ry="11.6" transform="matrix(0.103553,0,0,0.183019,309.22,-9.524778)"/><path id="path5214" fill="none" fill-rule="evenodd" stroke="#000" stroke-dasharray="none" stroke-linecap="butt" stroke-linejoin="miter" stroke-miterlimit="4" stroke-opacity="1" stroke-width=".959" marker-start="none" d="M 312.43099,13.992146 C 312.41236,9.635969 312.41236,9.635969 312.41236,9.635969"/></g><text id="text5216" x="252.021" y="-17.655" fill="#000" fill-opacity="1" stroke="none" stroke-linecap="butt" stroke-linejoin="miter" stroke-opacity="1" stroke-width="1" font-family="Bitstream Vera Sans" font-size="5.804" font-style="normal" font-weight="normal" xml:space="preserve"><tspan id="tspan5218" x="252.021" y="-17.655">GPI</tspan></text></g><g id="g5224"><path id="path4042" fill="none" fill-rule="evenodd" stroke="#000" stroke-linecap="butt" stroke-linejoin="miter" stroke-opacity="1" stroke-width="1" marker-start="url(#Arrow2Mstart)" d="M 161.71352,-21.139423 C 103.67665,-21.139423 103.67665,-21.139423 103.67665,-21.139423"/><text id="text5220" x="106.354" y="-26.435" fill="#000" fill-opacity="1" stroke="none" stroke-linecap="butt" stroke-linejoin="miter" stroke-opacity="1" stroke-width="1" font-family="Bitstream Vera Sans" font-size="12" font-style="normal" font-weight="normal" xml:space="preserve"><tspan id="tspan5222" x="106.354" y="-26.435" stroke="none" stroke-opacity="1" font-size="6" font-style="italic">Application Task</tspan></text></g><g id="g5274"><g id="g5310"><path id="path5231" fill="none" fill-rule="evenodd" stroke="#000" stroke-linecap="butt" stroke-linejoin="miter" stroke-opacity="1" stroke-width="1" marker-start="url(#Arrow2Mstart)" d="M 104.50098,-12.471207 C 162.53785,-12.471207 162.53785,-12.471207 162.53785,-12.471207"/><text id="text5233" x="111.436" y="-3.865" fill="#000" fill-opacity="1" stroke="none" stroke-linecap="butt" stroke-linejoin="miter" stroke-opacity="1" stroke-width="1" font-family="Bitstream Vera Sans" font-size="12" font-style="normal" font-weight="normal" xml:space="preserve"><tspan id="tspan5235" x="111.436" y="-3.865" stroke="none" stroke-opacity="1" font-size="6" font-style="italic">Accounting &amp;</tspan><tspan id="tspan5237" x="111.436" y="3.635" stroke="none" stroke-opacity="1" font-size="6" font-style="italic">Monitoring</tspan></text></g></g><rect id="rect3797" width="2.257" height=".967" x="90.28" y="25.112" fill="#fff" fill-opacity="1" stroke="none" stroke-dasharray="none" stroke-dashoffset="0" stroke-miterlimit="4" stroke-opacity="1" stroke-width="1"/><path id="path5308" fill="none" fill-rule="evenodd" stroke="#000" stroke-dasharray="none" stroke-linecap="butt" stroke-linejoin="miter" stroke-miterlimit="4" stroke-opacity="1" stroke-width=".541" marker-end="none" marker-start="url(#Arrow2Mstart)" d="M 240.15369,-16.476212 C 224.98495,-16.476212 224.98495,-16.476212 224.98495,-16.476212"/><path id="path5345" fill="none" fill-rule="evenodd" stroke="#000" stroke-dasharray="none" stroke-linecap="butt" stroke-linejoin="miter" stroke-miterlimit="4" stroke-opacity="1" stroke-width=".322" marker-end="url(#Arrow2Lend)" marker-start="url(#Arrow2Lstart)" d="M 263.26153,10.920165 C 263.26153,114.65168 262.89775,116.70611 262.89775,116.70611 L 205.42026,116.86731"/><rect id="rect3822" width="94.471" height="19.346" x="222.313" y="72.508" fill="#fff" fill-opacity="1" stroke="none" stroke-dasharray="none" stroke-dashoffset="0" stroke-miterlimit="4" stroke-opacity="1" stroke-width="1"/><g id="g5331" transform="translate(-3.8691259,-50.943466)"><rect id="rect5324" width="90.28" height="12.897" x="225.699" y="126.354" fill="#fff" fill-opacity="1" stroke="none" stroke-dasharray="none" stroke-dashoffset="0" stroke-miterlimit="4" stroke-opacity="1" stroke-width=".322" ry="0"/><text id="text5304" x="230.466" y="130.912" fill="#000" fill-opacity="1" stroke="none" stroke-linecap="butt" stroke-linejoin="miter" stroke-opacity="1" stroke-width="1" font-family="Bitstream Vera Sans" font-size="12" font-style="normal" font-weight="normal" xml:space="preserve"><tspan id="tspan3814" x="230.466" y="130.912" stroke="none" stroke-opacity="1" font-size="6" font-style="italic">Access to Grid Resources via Job</tspan><tspan id="tspan3818" x="230.466" y="138.412" stroke="none" stroke-opacity="1" font-size="6" font-style="italic">Management Interface</tspan></text></g><path id="path5337" fill="none" fill-rule="evenodd" stroke="#000" stroke-dasharray="none" stroke-linecap="butt" stroke-linejoin="miter" stroke-miterlimit="4" stroke-opacity="1" stroke-width=".261" marker-end="url(#Arrow2Lend)" marker-start="url(#Arrow2Lstart)" d="M 202.74486,-3.8723823 C 137.73805,99.880371 137.73805,99.880371 137.73805,99.880371 L 137.73805,99.880371"/><path id="path5339" fill="none" fill-rule="evenodd" stroke="#000" stroke-dasharray="none" stroke-linecap="butt" stroke-linejoin="miter" stroke-miterlimit="4" stroke-opacity="1" stroke-width=".261" marker-end="url(#Arrow2Lend)" marker-start="url(#Arrow2Lstart)" d="M 195.97391,-4.1948089 C 130.9671,99.557944 130.9671,99.557944 130.9671,99.557944 L 130.9671,99.557944"/><rect id="rect3820" width="71.901" height="19.346" x="149.284" y="31.238" fill="#fff" fill-opacity="1" stroke="none" stroke-dasharray="none" stroke-dashoffset="0" stroke-miterlimit="4" stroke-opacity="1" stroke-width="1"/><g id="g3802" transform="translate(-76.737638,-92.21413)"><rect id="rect3804" width="90.28" height="12.897" x="225.699" y="126.354" fill="#fff" fill-opacity="1" stroke="none" stroke-dasharray="none" stroke-dashoffset="0" stroke-miterlimit="4" stroke-opacity="1" stroke-width=".322" ry="0"/><text id="text3806" x="230.466" y="130.912" fill="#000" fill-opacity="1" stroke="none" stroke-linecap="butt" stroke-linejoin="miter" stroke-opacity="1" stroke-width="1" font-family="Bitstream Vera Sans" font-size="12" font-style="normal" font-weight="normal" xml:space="preserve"><tspan id="tspan3808" x="230.466" y="130.912" stroke="none" stroke-opacity="1" font-size="6" font-style="italic">Advanced Task Scheduling</tspan><tspan id="tspan3810" x="230.466" y="138.412" stroke="none" stroke-opacity="1" font-size="6"><tspan id="tspan3812" font-style="italic">and Execution Contro</tspan>l</tspan></text></g><image id="image10015" width="38.179" height="36.189" x="50.232" y="-32.954" xlink:href="/tmp/ocal-YG6GOU-elkbuntu_Generic_Monitor.png"/></svg>